<svg width="16" height="16" viewBox="0 0 16 16" fill="none" xmlns="http://www.w3.org/2000/svg">
<path id="coolicon" d="M8 16C3.58172 16 0 12.4183 0 8C0 3.58172 3.58172 0 8 0C12.4183 0 16 3.58172 16 8C15.9952 12.4163 12.4163 15.9952 8 16ZM1.6 8.1376C1.63785 11.6586 4.51289 14.4876 8.03403 14.4688C11.5552 14.4498 14.3996 11.59 14.3996 8.0688C14.3996 4.5476 11.5552 1.68782 8.03403 1.6688C4.51289 1.64997 1.63785 4.47901 1.6 8V8.1376ZM8.8 12H7.2V8.8H4V7.2H7.2V4H8.8V7.2H12V8.8H8.8V12Z" fill="white"/>
</svg>
