<svg width="20" height="20" viewBox="0 0 20 20" fill="none" xmlns="http://www.w3.org/2000/svg">
<path id="coolicon" d="M11.5226 20H7.88256C7.41267 20 7.00611 19.673 6.90556 19.214L6.49856 17.33C5.95561 17.0921 5.44078 16.7946 4.96356 16.443L3.12656 17.028C2.67856 17.1709 2.19154 16.9823 1.95656 16.575L0.132555 13.424C-0.099857 13.0165 -0.0197863 12.5025 0.325555 12.185L1.75056 10.885C1.68575 10.2961 1.68575 9.70189 1.75056 9.113L0.325555 7.816C-0.020295 7.49837 -0.100397 6.98372 0.132555 6.576L1.95256 3.423C2.18754 3.0157 2.67456 2.82714 3.12256 2.97L4.95956 3.555C5.20362 3.37416 5.45769 3.20722 5.72056 3.055C5.97289 2.91269 6.23259 2.78385 6.49856 2.669L6.90656 0.787C7.00662 0.327969 7.41274 0.000494393 7.88256 0H11.5226C11.9924 0.000494393 12.3985 0.327969 12.4986 0.787L12.9106 2.67C13.1913 2.79352 13.4648 2.93308 13.7296 3.088C13.9768 3.23078 14.2159 3.38736 14.4456 3.557L16.2836 2.972C16.7313 2.82967 17.2177 3.01816 17.4526 3.425L19.2726 6.578C19.505 6.98548 19.4249 7.49951 19.0796 7.817L17.6546 9.117C17.7194 9.70589 17.7194 10.3001 17.6546 10.889L19.0796 12.189C19.4249 12.5065 19.505 13.0205 19.2726 13.428L17.4526 16.581C17.2177 16.9878 16.7313 17.1763 16.2836 17.034L14.4456 16.449C14.213 16.6203 13.9713 16.7789 13.7216 16.924C13.4594 17.0759 13.189 17.2131 12.9116 17.335L12.4986 19.214C12.3981 19.6726 11.9921 19.9996 11.5226 20ZM9.69855 6C7.48942 6 5.69855 7.79086 5.69855 10C5.69855 12.2091 7.48942 14 9.69855 14C11.9077 14 13.6986 12.2091 13.6986 10C13.6986 7.79086 11.9077 6 9.69855 6Z" fill="#D94545"/>
</svg>
