<svg width="28" height="28" viewBox="0 0 28 28" fill="none" xmlns="http://www.w3.org/2000/svg">
<path id="coolicon" d="M16.1316 28H11.0356C10.3777 28 9.80855 27.5422 9.66778 26.8996L9.09798 24.262C8.33785 23.929 7.61709 23.5125 6.94898 23.0202L4.37718 23.8392C3.74998 24.0392 3.06816 23.7752 2.73918 23.205L0.185577 18.7936C-0.1398 18.2231 -0.0277008 17.5035 0.455777 17.059L2.45078 15.239C2.36005 14.4146 2.36005 13.5826 2.45078 12.7582L0.455777 10.9424C-0.028413 10.4977 -0.140556 9.77721 0.185577 9.2064L2.73358 4.7922C3.06256 4.22198 3.74438 3.95799 4.37158 4.158L6.94338 4.977C7.28506 4.72382 7.64076 4.49011 8.00878 4.277C8.36205 4.07777 8.72563 3.89739 9.09798 3.7366L9.66918 1.1018C9.80927 0.459156 10.3778 0.00069215 11.0356 0H16.1316C16.7893 0.00069215 17.3579 0.459156 17.498 1.1018L18.0748 3.738C18.4679 3.91092 18.8507 4.10631 19.2214 4.3232C19.5676 4.52309 19.9022 4.7423 20.2238 4.9798L22.797 4.1608C23.4238 3.96154 24.1047 4.22542 24.4336 4.795L26.9816 9.2092C27.307 9.77968 27.1949 10.4993 26.7114 10.9438L24.7164 12.7638C24.8071 13.5882 24.8071 14.4202 24.7164 15.2446L26.7114 17.0646C27.1949 17.5091 27.307 18.2287 26.9816 18.7992L24.4336 23.2134C24.1047 23.783 23.4238 24.0469 22.797 23.8476L20.2238 23.0286C19.8982 23.2684 19.5598 23.4904 19.2102 23.6936C18.8431 23.9063 18.4645 24.0984 18.0762 24.269L17.498 26.8996C17.3573 27.5417 16.7889 27.9995 16.1316 28ZM13.578 8.4C10.4852 8.4 7.97798 10.9072 7.97798 14C7.97798 17.0928 10.4852 19.6 13.578 19.6C16.6708 19.6 19.178 17.0928 19.178 14C19.178 10.9072 16.6708 8.4 13.578 8.4Z" fill="#D94545"/>
</svg>
