<svg width="23" height="28" viewBox="0 0 23 28" fill="none" xmlns="http://www.w3.org/2000/svg">
<path id="coolicon" d="M11.2 28C9.65447 27.9924 8.40128 26.7455 8.386 25.2H13.986C13.989 25.5743 13.9176 25.9455 13.776 26.292C13.4087 27.1348 12.6585 27.7495 11.76 27.944H11.753H11.732H11.7068H11.6942C11.5315 27.9779 11.3661 27.9966 11.2 28ZM22.4 23.8H0V21L2.8 19.6V11.9C2.72624 9.92477 3.17231 7.96478 4.0936 6.216C5.01065 4.59412 6.57817 3.44243 8.4 3.052V0H14V3.052C17.6106 3.9116 19.6 7.0532 19.6 11.9V19.6L22.4 21V23.8Z" fill="#D94545"/>
</svg>
