<svg width="18" height="16" viewBox="0 0 18 16" fill="none" xmlns="http://www.w3.org/2000/svg">
<path id="Vector" d="M1.77778 1.77778H4.44444L6.22222 0H11.5556L13.3333 1.77778H16C16.4715 1.77778 16.9237 1.96508 17.2571 2.29848C17.5905 2.63187 17.7778 3.08406 17.7778 3.55556V14.2222C17.7778 14.6937 17.5905 15.1459 17.2571 15.4793C16.9237 15.8127 16.4715 16 16 16H1.77778C1.30628 16 0.854097 15.8127 0.520699 15.4793C0.187301 15.1459 0 14.6937 0 14.2222V3.55556C0 3.08406 0.187301 2.63187 0.520699 2.29848C0.854097 1.96508 1.30628 1.77778 1.77778 1.77778ZM8.88889 4.44444C7.71015 4.44444 6.57969 4.9127 5.74619 5.74619C4.9127 6.57969 4.44444 7.71015 4.44444 8.88889C4.44444 10.0676 4.9127 11.1981 5.74619 12.0316C6.57969 12.8651 7.71015 13.3333 8.88889 13.3333C10.0676 13.3333 11.1981 12.8651 12.0316 12.0316C12.8651 11.1981 13.3333 10.0676 13.3333 8.88889C13.3333 7.71015 12.8651 6.57969 12.0316 5.74619C11.1981 4.9127 10.0676 4.44444 8.88889 4.44444ZM8.88889 6.22222C9.59613 6.22222 10.2744 6.50317 10.7745 7.00327C11.2746 7.50337 11.5556 8.18165 11.5556 8.88889C11.5556 9.59613 11.2746 10.2744 10.7745 10.7745C10.2744 11.2746 9.59613 11.5556 8.88889 11.5556C8.18165 11.5556 7.50337 11.2746 7.00327 10.7745C6.50317 10.2744 6.22222 9.59613 6.22222 8.88889C6.22222 8.18165 6.50317 7.50337 7.00327 7.00327C7.50337 6.50317 8.18165 6.22222 8.88889 6.22222Z" fill="black" fill-opacity="0.8"/>
</svg>
