<svg width="18" height="18" viewBox="0 0 18 18" fill="none" xmlns="http://www.w3.org/2000/svg">
<path d="M9.00023 17.5C4.2415 17.5 0.383789 13.6944 0.383789 9C0.383789 4.30558 4.2415 0.5 9.00023 0.5C13.759 0.5 17.6167 4.30558 17.6167 9C17.6114 13.6923 13.7568 17.4948 9.00023 17.5ZM8.98644 15.8H9.00023C12.8059 15.7962 15.8884 12.7508 15.8865 8.9966C15.8846 5.2424 12.799 2.2 8.99333 2.2C5.1877 2.2 2.10209 5.2424 2.10018 8.9966C2.09828 12.7508 5.18081 15.7962 8.98644 15.8ZM7.27694 13.25L3.83036 9.85L5.04528 8.6515L7.27694 10.8445L12.9552 5.243L14.1701 6.45L7.27694 13.25Z" fill="white"/>
</svg>
