<svg xmlns="http://www.w3.org/2000/svg" width="15" height="15" viewBox="0 0 15 15" fill="none">
  <path d="M7.5 15C3.35786 15 0 11.6421 0 7.5C0 3.35786 3.35786 0 7.5 0C11.6421 0 15 3.35786 15 7.5C14.9955 11.6403 11.6403 14.9955 7.5 15ZM7.488 13.5H7.5C10.8125 13.4967 13.4957 10.8095 13.494 7.497C13.4923 4.18447 10.8065 1.5 7.494 1.5C4.18146 1.5 1.49566 4.18447 1.494 7.497C1.49234 10.8095 4.17546 13.4967 7.488 13.5ZM6 11.25L3 8.25L4.0575 7.1925L6 9.1275L10.9425 4.185L12 5.25L6 11.25Z" fill="white"/>
</svg>
