<svg xmlns="http://www.w3.org/2000/svg" width="14" height="15" viewBox="0 0 14 15" fill="none">
<path d="M7 14.0124C3.13401 14.0124 0 10.876 0 7.00717C0 3.1383 3.13401 0.00195312 7 0.00195312C10.866 0.00195312 14 3.1383 14 7.00717C13.9958 10.8743 10.8642 14.0081 7 14.0124ZM6.9888 12.6114H7C10.0917 12.6083 12.5959 10.0984 12.5944 7.00437C12.5929 3.91037 10.0861 1.403 6.9944 1.403C3.9027 1.403 1.39595 3.91037 1.3944 7.00437C1.39285 10.0984 3.8971 12.6083 6.9888 12.6114ZM5.6 10.5098L2.8 7.70769L3.787 6.71996L5.6 8.52731L10.213 3.91087L11.2 4.90561L5.6 10.5098Z" fill="#2C2C2C"/>
</svg>