<svg xmlns="http://www.w3.org/2000/svg" width="18" height="23" viewBox="0 0 18 23" fill="none">
<path d="M15.75 23H2.25C1.00736 23 0 21.9703 0 20.7001V2.3009C0 1.0307 1.00736 0.00100215 2.25 0.00100215H10.125C10.1351 -0.00033405 10.1453 -0.00033405 10.1554 0.00100215H10.1621C10.1727 0.00440377 10.1837 0.00671508 10.1947 0.00790185C10.294 0.0144027 10.3919 0.0341186 10.4861 0.0665493H10.503H10.5199H10.5334C10.5541 0.0814133 10.5737 0.0979485 10.5919 0.115997C10.7144 0.171682 10.8261 0.249604 10.9215 0.345987L17.6715 7.24569C17.7658 7.34319 17.842 7.45734 17.8965 7.58262C17.9066 7.60792 17.9145 7.63207 17.9224 7.65852V7.67462V7.69072C17.9538 7.78661 17.9723 7.88642 17.9775 7.9874C17.9785 7.99886 17.9811 8.0101 17.9854 8.02075V8.02765C17.9911 8.03473 17.996 8.04244 18 8.05065V20.7001C18 21.9703 16.9926 23 15.75 23ZM2.25 2.3009V20.7001H15.75V9.2006H10.125C9.50368 9.2006 9 8.68575 9 8.05065V2.3009H2.25ZM11.25 3.92693V6.9007H14.1593L11.25 3.92693ZM10.125 18.4002H7.875V16.1003H5.625V13.8004H7.875V11.5005H10.125V13.8004H12.375V16.1003H10.125V18.4002Z" fill="#2C2C2C"/>
</svg>