<svg width="25" height="25" viewBox="0 0 25 25" fill="none" xmlns="http://www.w3.org/2000/svg">
<path d="M12.4875 25C5.58557 24.9931 -0.00459447 19.3936 2.83355e-06 12.4917C0.00460581 5.58974 5.60223 -0.00229693 12.5042 7.07779e-07C19.4061 0.00229976 25 5.59806 25 12.5C24.9959 19.4067 19.3942 25.0028 12.4875 25ZM2.5 12.715C2.55915 18.2165 7.05139 22.6369 12.5532 22.6075C18.055 22.5778 22.4994 18.1094 22.4994 12.6075C22.4994 7.10563 18.055 2.63721 12.5532 2.60749C7.05139 2.57807 2.55915 6.99844 2.5 12.5V12.715ZM13.75 18.75H11.25V16.25H13.75V18.75ZM13.75 13.75H11.25V6.24999H13.75V13.75Z" fill="#9F0000"/>
</svg>
