<svg width="26" height="26" viewBox="0 0 26 26" fill="none" xmlns="http://www.w3.org/2000/svg">
<path id="coolicon" d="M12.987 26C5.809 25.9928 -0.00477825 20.1693 2.94689e-06 12.9913C0.00479004 5.81333 5.82632 -0.0023888 13.0043 7.3609e-07C20.1823 0.00239175 26 5.82198 26 13C25.9957 20.183 20.17 26.0029 12.987 26ZM2.6 13.2236C2.66151 18.9452 7.33344 23.5424 13.0553 23.5118C18.7772 23.4809 23.3994 18.8337 23.3994 13.1118C23.3994 7.38985 18.7772 2.7427 13.0553 2.71179C7.33344 2.68119 2.66151 7.27838 2.6 13V13.2236ZM14.3 19.5H11.7V16.9H14.3V19.5ZM14.3 14.3H11.7V6.49999H14.3V14.3Z" fill="#2C2C2C"/>
</svg>
