<svg xmlns="http://www.w3.org/2000/svg" width="13" height="16" viewBox="0 0 13 16" fill="none">
  <path d="M6.22094 16C5.09845 15.0425 4.058 13.9929 3.11047 12.862C1.68854 11.1637 7.85316e-07 8.63441 7.85316e-07 6.22424C-0.00125954 3.70702 1.51457 1.43713 3.84016 0.473778C6.16574 -0.489573 8.84268 0.0435047 10.6218 1.82426C11.7918 2.989 12.4471 4.57337 12.4419 6.22424C12.4419 8.63441 10.7533 11.1637 9.33141 12.862C8.38389 13.9929 7.34344 15.0425 6.22094 16ZM6.22094 1.78071C3.76807 1.78365 1.78035 3.77136 1.77741 6.22424C1.77741 7.26047 2.24576 9.05477 4.47463 11.7218C5.02398 12.3777 5.60686 13.0048 6.22094 13.6005C6.83508 13.0055 7.41824 12.3793 7.96814 11.7244C10.1961 9.05388 10.6645 7.25958 10.6645 6.22424C10.6615 3.77136 8.67382 1.78365 6.22094 1.78071ZM6.22094 8.89036C4.74849 8.89036 3.55482 7.69669 3.55482 6.22424C3.55482 4.75178 4.74849 3.55812 6.22094 3.55812C7.6934 3.55812 8.88706 4.75178 8.88706 6.22424C8.88706 6.93134 8.60616 7.60947 8.10617 8.10947C7.60618 8.60946 6.92804 8.89036 6.22094 8.89036Z" fill="#2C2C2C"/>
</svg>