<svg width="28" height="26" viewBox="0 0 28 26" fill="none" xmlns="http://www.w3.org/2000/svg">
<path d="M26.639 25.1034H1.36376C0.876529 25.1034 0.426315 24.8376 0.182705 24.4061C-0.0609048 23.9746 -0.0609016 23.4429 0.182714 23.0114L12.8196 0.696086C13.0634 0.265276 13.5133 0 14 0C14.4867 0 14.9366 0.265276 15.1804 0.696086L27.8173 23.0114C28.0608 23.4427 28.0609 23.974 27.8176 24.4055C27.5744 24.8369 27.1246 25.1029 26.6376 25.1034H26.639ZM12.6383 18.1299V20.9193H13.9107H13.9993H14.088H15.3631V18.1299H12.6383ZM12.6383 8.36697V15.3405H15.3658V8.36697H12.6383Z" fill="#EB2234"/>
</svg>
