<svg width="29" height="22" viewBox="0 0 29 22" fill="none" xmlns="http://www.w3.org/2000/svg">
<path d="M2.94312 22H0C0 17.1399 3.95303 13.2 8.82935 13.2C13.7057 13.2 17.6587 17.1399 17.6587 22H14.7156C14.7156 18.7599 12.0802 16.1333 8.82935 16.1333C5.57847 16.1333 2.94312 18.7599 2.94312 22ZM26.9207 17.1688L23.5449 13.8057L20.1707 17.1688L18.0899 15.0949L21.4627 11.7333L18.0899 8.37027L20.1707 6.2964L23.5449 9.65947L26.9192 6.2964L29 8.37027L25.6257 11.7333L29 15.0964L26.9207 17.1688ZM8.82935 11.7333C5.57847 11.7333 2.94312 9.10674 2.94312 5.86667C2.94312 2.6266 5.57847 0 8.82935 0C12.0802 0 14.7156 2.6266 14.7156 5.86667C14.7115 9.10506 12.0785 11.7293 8.82935 11.7333ZM8.82935 2.93333C7.22152 2.93496 5.91256 4.22231 5.88952 5.82463C5.86648 7.42696 7.13789 8.75116 8.74501 8.79871C10.3521 8.84625 11.7001 7.59953 11.7725 5.99867V6.58533V5.86667C11.7725 4.24663 10.4548 2.93333 8.82935 2.93333Z" fill="#EB2234"/>
</svg>
