<svg width="53" height="53" viewBox="0 0 53 53" fill="none" xmlns="http://www.w3.org/2000/svg">
<path d="M53 26.5C53 41.1355 41.1355 53 26.5 53C11.8645 53 0 41.1355 0 26.5C0 11.8645 11.8645 0 26.5 0C41.1355 0 53 11.8645 53 26.5Z" fill="#EB2234"/>
<path d="M26.7999 36.625C25.5849 36.625 24.5999 35.64 24.5999 34.425H28.9999C28.9999 35.64 28.0149 36.625 26.7999 36.625ZM35.5998 33.325H18V31.1251L20.2 30.0251V23.9751C20.142 22.4232 20.4925 20.8832 21.2164 19.5092C21.9369 18.2349 23.1685 17.33 24.5999 17.0232V14.6253H28.6105C27.1809 16.2229 26.9423 18.5592 28.0194 20.4129C29.0966 22.2665 31.2445 23.2161 33.3404 22.7652C33.3789 23.1579 33.3976 23.5648 33.3976 23.9751V30.0251L35.5976 31.1251V33.325H35.5998ZM32.2998 21.2252C30.5505 21.2225 29.1073 19.8552 29.0101 18.1086C28.9129 16.362 30.1955 14.843 31.9337 14.6462C33.6718 14.4494 35.2616 15.6431 35.5574 17.3672C35.8532 19.0913 34.7522 20.7467 33.0478 21.1405C32.8025 21.1968 32.5516 21.2252 32.2998 21.2252Z" fill="white"/>
</svg>
