<svg xmlns="http://www.w3.org/2000/svg" width="24" height="21" viewBox="0 0 24 21" fill="none">
<path d="M22.8334 20.4H1.16894C0.751311 20.4 0.365413 20.184 0.156604 19.8333C-0.0522041 19.4826 -0.0522013 19.0506 0.156612 18.6999L10.9883 0.565665C11.1972 0.215573 11.5828 0 12 0C12.4172 0 12.8028 0.215573 13.0117 0.565665L23.8434 18.6999C24.0521 19.0504 24.0522 19.4822 23.8437 19.8328C23.6352 20.1834 23.2496 20.3996 22.8322 20.4H22.8334ZM12.0018 3.39914L3.19826 18.1332H20.8076L12.0018 3.39914ZM13.1649 13.6008H10.8269V7.9327H13.1649V13.6008Z" fill="#2C2C2C"/>
<path d="M10.8328 14.7353H13.1707V17.0021H10.8328V14.7353Z" fill="#2C2C2C"/>
</svg>