<svg width="33" height="33" viewBox="0 0 33 33" fill="none" xmlns="http://www.w3.org/2000/svg">
<path d="M29.3333 33H3.66667C1.64162 33 0 31.3584 0 29.3333V3.66667C0 1.64162 1.64162 0 3.66667 0H29.3333C31.3584 0 33 1.64162 33 3.66667V29.3333C33 31.3584 31.3584 33 29.3333 33ZM3.66667 3.66667V29.3333H29.3333V3.66667H3.66667Z" fill="#2C2C2C"/>
<path d="M11.2157 24.1793L8.62296 21.5866L13.8084 16.4011L8.62296 11.2157L11.2157 8.62295L16.4011 13.8084L21.5866 8.62295L24.1793 11.2157L18.9939 16.4011L24.1793 21.5866L21.5866 24.1793L16.4011 18.9938L11.2157 24.1793Z" fill="#2C2C2C"/>
</svg>
