<svg width="20" height="14" viewBox="0 0 20 14" fill="none" xmlns="http://www.w3.org/2000/svg">
<path id="coolicon" d="M10 14.0008C8.35987 14.0213 6.7367 13.6673 5.254 12.9658C4.10469 12.4051 3.07265 11.6306 2.213 10.6838C1.30243 9.70495 0.585467 8.56249 0.1 7.31683L0 7.00083L0.105 6.68483C0.590815 5.44027 1.30624 4.2981 2.214 3.31783C3.07334 2.37115 4.10504 1.5967 5.254 1.03583C6.73671 0.334422 8.35988 -0.0195556 10 0.000833371C11.6401 -0.0195204 13.2633 0.334455 14.746 1.03583C15.8953 1.59657 16.9274 2.37103 17.787 3.31783C18.6993 4.29539 19.4165 5.4382 19.9 6.68483L20 7.00083L19.895 7.31683C18.3262 11.4006 14.3742 14.0702 10 14.0008ZM10 2.00083C6.59587 1.89416 3.47142 3.87593 2.117 7.00083C3.4712 10.1259 6.59579 12.1078 10 12.0008C13.4041 12.1072 16.5284 10.1255 17.883 7.00083C16.5304 3.87441 13.4047 1.89191 10 2.00083ZM10 10.0008C8.55733 10.0104 7.30937 8.99819 7.02097 7.58461C6.73256 6.17102 7.48427 4.75086 8.81538 4.1945C10.1465 3.63813 11.6852 4.10097 12.4885 5.29934C13.2919 6.49771 13.1354 8.09691 12.115 9.11683C11.5563 9.68209 10.7948 10.0004 10 10.0008Z" fill="#2C2C2C"/>
</svg>
