<svg width="20" height="19" viewBox="0 0 20 19" fill="none" xmlns="http://www.w3.org/2000/svg">
<path id="coolicon" d="M17.97 18.383L14.614 15.027C13.1661 15.6862 11.5908 16.0184 10 16C8.35988 16.0204 6.73671 15.6664 5.254 14.965C4.10468 14.4042 3.07264 13.6298 2.213 12.683C1.30049 11.7049 0.583297 10.5613 0.1 9.314L0 9L0.105 8.684C0.82781 6.84029 2.04426 5.23116 3.621 4.033L1 1.412L2.413 0L19.382 16.969L17.972 18.383H17.97ZM5.036 5.449C3.75792 6.34491 2.74865 7.57271 2.117 9C3.47142 12.1249 6.59587 14.1067 10 14C11.0498 14.0086 12.0936 13.8396 13.087 13.5L11.287 11.7C10.8863 11.8964 10.4462 11.999 10 12C8.34746 11.9896 7.01037 10.6525 7 9C7.00048 8.55277 7.10309 8.11155 7.3 7.71L5.036 5.449ZM17.852 12.61L16.46 11.219C17.0456 10.5569 17.5256 9.80844 17.883 9C16.5304 5.87358 13.4047 3.89108 10 4C9.753 4 9.505 4.009 9.265 4.026L7.5 2.259C8.32163 2.08323 9.15979 1.9964 10 2C11.6401 1.97965 13.2633 2.33362 14.746 3.035C15.8953 3.59573 16.9274 4.37019 17.787 5.317C18.6991 6.29396 19.4163 7.43607 19.9 8.682L20 9L19.895 9.316C19.4268 10.5341 18.7342 11.6535 17.853 12.616L17.852 12.61Z" fill="#2C2C2C"/>
</svg>
