<svg width="16" height="20" viewBox="0 0 16 20" fill="none" xmlns="http://www.w3.org/2000/svg">
<path id="coolicon" d="M14 20.0009H2C0.89543 20.0009 0 19.1054 0 18.0009V2.00087C0 0.896302 0.89543 0.000871474 2 0.000871474H9C9.00896 -0.000290491 9.01804 -0.000290491 9.027 0.000871474H9.033C9.04244 0.00382953 9.05216 0.00583946 9.062 0.00687147C9.15019 0.0125247 9.23726 0.0296696 9.321 0.0578715H9.336H9.351H9.363C9.38145 0.0707972 9.39884 0.0851763 9.415 0.100871C9.52394 0.149295 9.62321 0.217056 9.708 0.300871L15.708 6.30087C15.7918 6.38566 15.8596 6.48493 15.908 6.59387C15.917 6.61587 15.924 6.63687 15.931 6.65987L15.941 6.68787C15.9689 6.77126 15.9854 6.85805 15.99 6.94587C15.9909 6.95583 15.9932 6.96561 15.997 6.97487V6.98087C15.9986 6.98743 15.9996 6.99412 16 7.00087V18.0009C16 18.5313 15.7893 19.04 15.4142 19.4151C15.0391 19.7902 14.5304 20.0009 14 20.0009ZM10.424 12.0009V17.0009H11.364V14.9609H12.824V14.1229H11.364V12.8419H13V12.0009H10.424ZM6.724 12.0009V17.0009H7.93C8.43593 17.0257 8.92583 16.8198 9.262 16.4409C9.6069 16.0008 9.77967 15.4501 9.748 14.8919V14.0819C9.77117 13.5295 9.59356 12.9874 9.248 12.5559C8.92263 12.1855 8.44761 11.9816 7.955 12.0009H6.724ZM3 12.0009V17.0009H3.94V15.2419H4.566C4.98402 15.265 5.39232 15.1103 5.69 14.8159C5.97408 14.4983 6.12141 14.0814 6.1 13.6559C6.11856 13.2201 5.97135 12.7935 5.688 12.4619C5.40772 12.1511 5.00309 11.9819 4.585 12.0009H3ZM9 2.00087V7.00087H14L9 2.00087ZM7.946 16.1629H7.664V12.8419H8.006C8.24885 12.8276 8.48236 12.9375 8.626 13.1339C8.77261 13.4372 8.83544 13.7741 8.808 14.1099V14.9789C8.82996 15.2986 8.7606 15.618 8.608 15.8999C8.4441 16.0912 8.19651 16.1896 7.946 16.1629ZM4.585 14.4009H3.939V12.8419H4.594C4.75752 12.8436 4.90863 12.9294 4.994 13.0689C5.10222 13.2474 5.15447 13.4543 5.144 13.6629C5.15654 13.8574 5.1049 14.0506 4.997 14.2129C4.89754 14.3377 4.74447 14.4076 4.585 14.4009Z" fill="#2C2C2C"/>
</svg>
