<svg width="21" height="26" viewBox="0 0 21 26" fill="none" xmlns="http://www.w3.org/2000/svg">
<path id="coolicon" d="M18.375 26H2.625C1.17525 26 0 24.836 0 23.4001V2.60102C0 1.16514 1.17525 0.00113287 2.625 0.00113287H11.8125C11.8243 -0.000377622 11.8362 -0.000377622 11.8479 0.00113287H11.8558C11.8682 0.00497818 11.881 0.00759097 11.8939 0.00893253C12.0096 0.0162814 12.1239 0.0385688 12.2338 0.0752296H12.2535H12.2732H12.2889C12.3132 0.0920324 12.336 0.110724 12.3572 0.131127C12.5002 0.194075 12.6305 0.282161 12.7418 0.391116L20.6168 8.19078C20.7268 8.30099 20.8157 8.43004 20.8792 8.57166C20.8911 8.60026 20.9002 8.62756 20.9094 8.65746L20.9226 8.69385C20.9592 8.80226 20.9808 8.91508 20.9869 9.02924C20.988 9.04219 20.9911 9.0549 20.9961 9.06694V9.07474C20.9982 9.08326 20.9995 9.09196 21 9.10074V23.4001C21 24.0896 20.7234 24.7509 20.2312 25.2385C19.7389 25.7261 19.0712 26 18.375 26ZM13.6815 15.6005V22.1002H14.9153V19.4483H16.8315V18.3589H14.9153V16.6937H17.0625V15.6005H13.6815ZM8.82525 15.6005V22.1002H10.4081C11.0722 22.1325 11.7151 21.8648 12.1564 21.3722C12.6091 20.8001 12.8358 20.0843 12.7943 19.3586V18.3056C12.8247 17.5876 12.5915 16.8829 12.138 16.3219C11.711 15.8405 11.0875 15.5754 10.4409 15.6005H8.82525ZM3.9375 15.6005V22.1002H5.17125V19.8136H5.99288C6.54153 19.8436 7.07743 19.6425 7.46812 19.2598C7.84098 18.8469 8.03435 18.3051 8.00625 17.7519C8.03061 17.1854 7.83739 16.6308 7.4655 16.1997C7.09763 15.7957 6.56656 15.5759 6.01781 15.6005H3.9375ZM11.8125 2.60102V9.10074H18.375L11.8125 2.60102ZM10.4291 21.0108H10.059V16.6937H10.5079C10.8266 16.6751 11.1331 16.8181 11.3216 17.0733C11.514 17.4675 11.5965 17.9056 11.5605 18.342V19.4717C11.5893 19.8873 11.4983 20.3026 11.298 20.6689C11.0829 20.9176 10.7579 21.0455 10.4291 21.0108ZM6.01781 18.7203H5.16994V16.6937H6.02962C6.24424 16.696 6.44258 16.8075 6.55463 16.9888C6.69666 17.2209 6.76524 17.4899 6.7515 17.761C6.76796 18.0138 6.70018 18.265 6.55856 18.4759C6.42803 18.6382 6.22711 18.729 6.01781 18.7203Z" fill="#C32D38"/>
</svg>
