<svg width="24" height="18" viewBox="0 0 24 18" fill="none" xmlns="http://www.w3.org/2000/svg">
<path id="coolicon" d="M2.43568 18H0C0 14.0236 3.27148 10.8 7.30705 10.8C11.3426 10.8 14.6141 14.0236 14.6141 18H12.1784C12.1784 15.349 9.99743 13.2 7.30705 13.2C4.61667 13.2 2.43568 15.349 2.43568 18ZM22.2792 14.0472L19.4855 11.2956L16.693 14.0472L14.9709 12.3504L17.7622 9.6L14.9709 6.8484L16.693 5.1516L19.4855 7.9032L22.278 5.1516L24 6.8484L21.2075 9.6L24 12.3516L22.2792 14.0472ZM7.30705 9.6C4.61667 9.6 2.43568 7.45097 2.43568 4.8C2.43568 2.14903 4.61667 0 7.30705 0C9.99743 0 12.1784 2.14903 12.1784 4.8C12.1751 7.4496 9.99604 9.59669 7.30705 9.6ZM7.30705 2.4C5.97643 2.40133 4.89315 3.45462 4.87408 4.76561C4.85502 6.0766 5.90722 7.16004 7.23725 7.19894C8.56729 7.23784 9.68285 6.2178 9.74273 4.908V5.388V4.8C9.74273 3.47452 8.65224 2.4 7.30705 2.4Z" fill="#2C2C2C"/>
</svg>
