<svg xmlns="http://www.w3.org/2000/svg" width="14" height="16" viewBox="0 0 14 16" fill="none">
  <path d="M2.52632 4.21053C2.52632 1.88512 4.41143 0 6.73684 0C9.06225 0 10.9474 1.88512 10.9474 4.21053C10.9474 6.53594 9.06225 8.42105 6.73684 8.42105C4.41143 8.42105 2.52632 6.53594 2.52632 4.21053ZM6.73684 6.73684C8.13209 6.73684 9.26316 5.60577 9.26316 4.21053C9.26316 2.81528 8.13209 1.68421 6.73684 1.68421C5.3416 1.68421 4.21053 2.81528 4.21053 4.21053C4.21053 5.60577 5.3416 6.73684 6.73684 6.73684Z" fill="#2C2C2C"/>
  <path d="M1.97318 11.2363C0.709772 12.4997 0 14.2133 0 16H1.68421C1.68421 14.66 2.21654 13.3748 3.16409 12.4272C4.11164 11.4797 5.3968 10.9474 6.73684 10.9474C8.07688 10.9474 9.36204 11.4797 10.3096 12.4272C11.2571 13.3748 11.7895 14.66 11.7895 16H13.4737C13.4737 14.2133 12.7639 12.4997 11.5005 11.2363C10.2371 9.97293 8.52356 9.26316 6.73684 9.26316C4.95012 9.26316 3.23658 9.97293 1.97318 11.2363Z" fill="#2C2C2C"/>
</svg>