<svg xmlns="http://www.w3.org/2000/svg" width="27" height="24" viewBox="0 0 27 24" fill="none">
<path d="M25.6876 24H1.31505C0.845225 24 0.41109 23.7458 0.17618 23.3333C-0.0587296 22.9207 -0.0587265 22.4124 0.176188 21.9999L12.3618 0.665488C12.5969 0.253616 13.0307 0 13.5 0C13.9693 0 14.4031 0.253616 14.6382 0.665488L26.8238 21.9999C27.0586 22.4122 27.0587 22.9202 26.8242 23.3327C26.5896 23.7452 26.1559 23.9995 25.6863 24H25.6876ZM12.1869 17.333V19.9998H13.4139H13.4993H13.5848H14.8144V17.333H12.1869ZM12.1869 7.99919V14.6662H14.8171V7.99919H12.1869Z" fill="#EB2234"/>
</svg>