<svg width="50" height="50" viewBox="0 0 50 50" fill="none" xmlns="http://www.w3.org/2000/svg">
<g id="Group 222">
<circle id="Ellipse 9" opacity="0.8" cx="25" cy="25" r="25" fill="#EB2234"/>
<path id="coolicon" d="M24.8 36C23.5857 35.994 22.601 35.0143 22.589 33.8H26.989C26.9913 34.0941 26.9352 34.3857 26.824 34.658C26.5354 35.3202 25.946 35.8032 25.24 35.956H25.2345H25.218H25.1982H25.1883C25.0605 35.9826 24.9305 35.9973 24.8 36ZM33.6 32.7H16V30.5L18.2 29.4V23.35C18.142 21.798 18.4925 20.258 19.2164 18.884C19.9369 17.6097 21.1686 16.7048 22.6 16.398V14H27V16.398C29.8369 17.0734 31.4 19.5418 31.4 23.35V29.4L33.6 30.5V32.7Z" fill="white"/>
</g>
</svg>
