<svg width="20" height="20" viewBox="0 0 20 20" fill="none" xmlns="http://www.w3.org/2000/svg">
<path id="coolicon" d="M0 20V11.25H8.75L4.72875 15.275C6.1162 16.6937 8.01558 17.4954 10 17.4999C13.1743 17.4953 16.0019 15.4927 17.06 12.5H17.0825C17.2257 12.0933 17.334 11.6751 17.4062 11.25H19.9212C19.2913 16.2498 15.0394 19.9998 10 20H9.9875C7.33595 20.0078 4.79145 18.9546 2.92125 17.0749L0 20ZM2.5925 8.75002H0.0775C0.707187 3.75208 4.95625 0.00278108 9.99375 5.08744e-05H10C12.652 -0.00843465 15.1972 1.04489 17.0675 2.92507L20 5.08744e-05V8.75002H11.25L15.2775 4.72506C13.8886 3.30463 11.9866 2.50275 10 2.50008C6.82569 2.50476 3.9981 4.50729 2.94 7.50003H2.9175C2.7732 7.90641 2.66486 8.32468 2.59375 8.75002H2.5925Z" fill="#2C2C2C"/>
</svg>
