<svg xmlns="http://www.w3.org/2000/svg" width="14" height="14" viewBox="0 0 14 14" fill="none">
  <path d="M0 14V7.875H6.12494L3.31009 10.6925C4.2813 11.6856 5.61085 12.2468 6.99993 12.25C9.22193 12.2467 11.2012 10.8449 11.9419 8.74999H11.9576C12.0579 8.46528 12.1337 8.17256 12.1843 7.875H13.9447C13.5038 11.3749 10.5275 13.9998 6.99993 14H6.99118C5.13512 14.0055 3.35399 13.2682 2.04486 11.9525L0 14ZM1.81473 6.12501H0.0542495C0.495026 2.62645 3.46934 0.00194676 6.99556 3.56121e-05H6.99993C8.85634 -0.00590426 10.6379 0.731424 11.9471 2.04755L13.9999 3.56121e-05V6.12501H7.87492L10.6941 3.30754C9.72194 2.31324 8.39055 1.75193 6.99993 1.75005C4.77794 1.75333 2.79864 3.1551 2.05798 5.25002H2.04223C1.94122 5.53449 1.86451 5.82728 1.81473 6.12501Z" fill="#2C2C2C"/>
</svg>