<svg xmlns="http://www.w3.org/2000/svg" width="18" height="17" viewBox="0 0 18 17" fill="none">
  <path d="M8.84935 17C4.09062 17 0.23291 13.1944 0.23291 8.5C0.23291 3.80558 4.09062 0 8.84935 0C13.6081 0 17.4658 3.80558 17.4658 8.5C17.4606 13.1923 13.6059 16.9948 8.84935 17ZM8.83556 15.3H8.84935C12.655 15.2962 15.7375 12.2508 15.7356 8.4966C15.7337 4.7424 12.6481 1.7 8.84246 1.7C5.03682 1.7 1.95121 4.7424 1.9493 8.4966C1.9474 12.2508 5.02993 15.2962 8.83556 15.3ZM7.12606 12.75L3.67949 9.35L4.8944 8.1515L7.12606 10.3445L12.8043 4.743L14.0192 5.95L7.12606 12.75Z" fill="white"/>
</svg>